<svg xmlns="http://www.w3.org/2000/svg" viewBox="0 0 512 512" shape-rendering="crispEdges">
  <rect width="512" height="512" rx="96" fill="#0d0e14"/>
  <rect x="32" y="32" width="448" height="448" rx="80" fill="#14161e" stroke="#2a2f3f" stroke-width="2"/>
  <!-- 성 베이스 -->
  <rect x="120" y="240" width="272" height="180" fill="#6a6a7a"/>
  <rect x="80" y="200" width="60" height="220" fill="#5a5a7a"/>
  <rect x="372" y="200" width="60" height="220" fill="#5a5a7a"/>
  <!-- 탑 지붕 -->
  <polygon points="80,200 110,140 140,200" fill="#7d3f3f"/>
  <polygon points="372,200 402,140 432,200" fill="#7d3f3f"/>
  <!-- 톱니 -->
  <rect x="120" y="220" width="40" height="20" fill="#6a6a7a"/>
  <rect x="180" y="220" width="40" height="20" fill="#6a6a7a"/>
  <rect x="240" y="220" width="40" height="20" fill="#6a6a7a"/>
  <rect x="300" y="220" width="40" height="20" fill="#6a6a7a"/>
  <rect x="360" y="220" width="32" height="20" fill="#6a6a7a"/>
  <!-- 창문 -->
  <rect x="92" y="260" width="14" height="22" fill="#fde68a"/>
  <rect x="92" y="320" width="14" height="22" fill="#fde68a"/>
  <rect x="406" y="260" width="14" height="22" fill="#fde68a"/>
  <rect x="406" y="320" width="14" height="22" fill="#fde68a"/>
  <!-- 깃발 -->
  <line x1="110" y1="140" x2="110" y2="100" stroke="#3a2a1a" stroke-width="3"/>
  <polygon points="110,100 144,116 110,128" fill="#f3d878"/>
  <line x1="402" y1="140" x2="402" y2="100" stroke="#3a2a1a" stroke-width="3"/>
  <polygon points="402,100 436,116 402,128" fill="#f3d878"/>
  <!-- 정문 -->
  <path d="M 200 420 L 200 320 Q 256 270 312 320 L 312 420 Z" fill="#1a1018"/>
  <!-- 정문 격자 (수직) -->
  <line x1="220" y1="340" x2="220" y2="420" stroke="#5a3a1a" stroke-width="2"/>
  <line x1="240" y1="334" x2="240" y2="420" stroke="#5a3a1a" stroke-width="2"/>
  <line x1="260" y1="332" x2="260" y2="420" stroke="#5a3a1a" stroke-width="2"/>
  <line x1="280" y1="334" x2="280" y2="420" stroke="#5a3a1a" stroke-width="2"/>
  <line x1="300" y1="340" x2="300" y2="420" stroke="#5a3a1a" stroke-width="2"/>
  <!-- 정문 격자 (수평) -->
  <line x1="200" y1="360" x2="312" y2="360" stroke="#5a3a1a" stroke-width="2"/>
  <line x1="200" y1="390" x2="312" y2="390" stroke="#5a3a1a" stroke-width="2"/>
  <!-- 별/장식 -->
  <circle cx="160" cy="80" r="4" fill="#a78bfa"/>
  <circle cx="350" cy="60" r="3" fill="#7dd3fc"/>
  <circle cx="60" cy="100" r="3" fill="#fde68a"/>
  <circle cx="450" cy="100" r="4" fill="#fde68a"/>
</svg>
